<svg xmlns="http://www.w3.org/2000/svg" viewBox="1255 265 308.833 54.571">
  <defs>
    <style>
      .cls-1 {
        fill: #00bcd4;
      }
    </style>
  </defs>
  <g id="Group_6" data-name="Group 6" transform="translate(1255 265)">
    <g id="Group_3" data-name="Group 3" transform="translate(0 0.165)">
      <path id="Path_298" data-name="Path 298" class="cls-1" d="M34.875,54.014H26a40.333,40.333,0,0,1-.441-4.132c-2.259,4.077-6.171,5.124-10.3,5.124C4.793,55.006,0,47.155,0,28.12,0,7.322,7.162.6,18.622.6c14.82,0,16.005,11.735,16.143,15.812H22.7c-.138-2.562-.5-6.308-4.463-6.308-4.49,0-5.592,5.868-5.592,18.1,0,12.617,1.074,17.327,5.4,17.327,3.664,0,4.766-3.058,4.766-8.733V33.436H17.658V23.988H34.875Z" transform="translate(0 -0.6)"/>
      <path id="Path_299" data-name="Path 299" class="cls-1" d="M154.966,4V56.478H142.9V4Z" transform="translate(-103.535 -3.063)"/>
      <path id="Path_300" data-name="Path 300" class="cls-1" d="M203.958,13.862H193.6V4h32.671v9.862h-10.3V56.478H203.93V13.862Z" transform="translate(-140.268 -3.063)"/>
      <path id="Path_301" data-name="Path 301" class="cls-1" d="M319.5,4h12.066V46.7H348.2l-1.129,9.807H319.5Z" transform="translate(-231.486 -3.063)"/>
      <path id="Path_302" data-name="Path 302" class="cls-1" d="M438.756,45.238l-1.791,11.239H424.9L435.258,4H452.2l10.5,52.478H450.161l-1.846-11.239ZM446.718,35.1c-1.185-7.658-2.342-16.2-3-21.019h-.386c-.523,5.041-1.791,13.36-3.03,21.019Z" transform="translate(-307.851 -3.063)"/>
      <path id="Path_303" data-name="Path 303" class="cls-1" d="M566.9,4h17.465c9.394,0,14.655,4.793,14.655,13.471,0,6.556-3,9.614-6.253,10.826,3.774,1.488,7.686,4.821,7.686,12.617,0,10.413-6.336,15.564-16.473,15.564H566.928V4Zm14.931,20.468c4.435,0,5.482-1.791,5.482-5.84,0-4.132-1.68-5.812-5.372-5.812h-3.333V24.468Zm-3.223,23.305h3.8c3.719,0,5.647-1.763,5.647-7.245,0-5.289-1.57-7.548-6.363-7.548H578.58V47.773Z" transform="translate(-410.734 -3.063)"/>
    </g>
    <g id="Group_5" data-name="Group 5" transform="translate(189.333 0)">
      <g id="Group_4" data-name="Group 4" transform="translate(0 0)">
        <path id="Path_304" data-name="Path 304" class="cls-1" d="M691.735,40.171c.413,5.812,3.333,10.33,9.476,10.33,5.868,0,9.036-3.058,9.036-9.945,0-6.005-2.286-9.118-9.669-12.7-7.989-3.829-11.68-7.438-11.68-15.041C688.9,6.013,693.25.2,701.542.2c9.586,0,12.286,7.052,12.451,13h-4.408c-.248-2.4-1.019-9.118-8.237-9.118-5.565,0-7.906,3.884-7.906,8.347,0,5.509,2.479,8.126,9.256,11.377,9.146,4.408,12.2,8.87,12.2,16.391,0,8.374-4.545,14.187-13.746,14.187-10.027,0-13.416-6.611-13.856-14.214h4.435Z" transform="translate(-687.3 -0.145)"/>
        <path id="Path_305" data-name="Path 305" class="cls-1" d="M805.1,2.6h12.81c8.126,0,13.581,5.206,13.581,14.352,0,9.091-4.876,15.151-14.462,15.151H809.59V55.436h-4.463V2.6Zm4.463,25.591h7c6.722,0,10.33-3.636,10.33-11.267,0-6.033-3.168-10.385-9.614-10.385h-7.741V28.191Z" transform="translate(-772.649 -1.884)"/>
        <path id="Path_306" data-name="Path 306" class="cls-1" d="M941.816,26.666c0,17.548-3.939,27.658-15.1,27.658-10.716,0-14.82-9.7-14.82-27.492C911.9,9.2,916.748,0,926.941,0,937.657,0,941.816,8.925,941.816,26.666Zm-25.316.028c0,16.005,3.471,23.636,10.385,23.636,7.107,0,10.33-7.548,10.33-23.525,0-16.528-3.5-22.837-10.385-22.837C920.082,3.994,916.5,11.35,916.5,26.693Z" transform="translate(-850.029 0)"/>
        <path id="Path_307" data-name="Path 307" class="cls-1" d="M1030.056,6.649H1018.1V2.6h28.374V6.649h-11.956V55.463h-4.463Z" transform="translate(-926.973 -1.884)"/>
      </g>
    </g>
  </g>
</svg>
