<svg xmlns="http://www.w3.org/2000/svg" viewBox="44.44 1192 199.941 35.33">
  <defs>
    <style>
      .cls-1 {
        fill: #fff;
      }
    </style>
  </defs>
  <g id="logo" transform="translate(44.44 1192)">
    <g id="Group_3" data-name="Group 3" transform="translate(0 0.107)">
      <path id="Path_298" data-name="Path 298" class="cls-1" d="M22.578,38.311H16.833a26.11,26.11,0,0,1-.286-2.675c-1.462,2.639-4,3.317-6.668,3.317C3.1,38.953,0,33.87,0,21.547,0,8.082,4.637,3.73,12.056,3.73c9.595,0,10.362,7.6,10.451,10.237H14.7c-.089-1.659-.324-4.084-2.889-4.084-2.907,0-3.62,3.8-3.62,11.718,0,8.168.7,11.218,3.5,11.218,2.372,0,3.086-1.98,3.086-5.654V24.988H11.432V18.872H22.578Z" transform="translate(0 -3.73)"/>
      <path id="Path_299" data-name="Path 299" class="cls-1" d="M896.211,24.868V58.842H888.4V24.868Z" transform="translate(-862.914 -24.261)"/>
      <path id="Path_300" data-name="Path 300" class="cls-1" d="M1210.3,31.252H1203.6V24.868h21.151v6.385h-6.668v27.59h-7.8V31.252Z" transform="translate(-1169.071 -24.261)"/>
      <path id="Path_301" data-name="Path 301" class="cls-1" d="M1986.31,24.868h7.812V52.512h10.769l-.731,6.349h-17.85Z" transform="translate(-1929.329 -24.261)"/>
      <path id="Path_302" data-name="Path 302" class="cls-1" d="M2650.545,51.565l-1.16,7.276h-7.811l6.706-33.974h10.969l6.8,33.975h-8.118l-1.2-7.276ZM2655.7,45c-.767-4.958-1.516-10.488-1.942-13.608h-.25c-.339,3.264-1.159,8.649-1.962,13.608Z" transform="translate(-2565.796 -24.261)"/>
      <path id="Path_303" data-name="Path 303" class="cls-1" d="M3524.379,24.868h11.307c6.082,0,9.488,3.1,9.488,8.721,0,4.244-1.942,6.224-4.048,7.009,2.443.963,4.976,3.121,4.976,8.168,0,6.741-4.1,10.076-10.665,10.076H3524.4V24.868Zm9.667,13.251c2.872,0,3.549-1.16,3.549-3.781,0-2.675-1.088-3.763-3.478-3.763h-2.158v7.544Zm-2.086,15.088h2.46c2.408,0,3.656-1.141,3.656-4.69,0-3.424-1.017-4.887-4.12-4.887h-2.015v9.577Z" transform="translate(-3423.276 -24.261)"/>
    </g>
    <g id="Group_5" data-name="Group 5" transform="translate(122.573 0)">
      <g id="Group_4" data-name="Group 4">
        <path id="Path_304" data-name="Path 304" class="cls-1" d="M4275.746,27.121c.268,3.763,2.158,6.688,6.135,6.688,3.8,0,5.85-1.98,5.85-6.438,0-3.888-1.48-5.9-6.259-8.222-5.173-2.479-7.562-4.815-7.562-9.738,0-4.4,2.817-8.167,8.186-8.167,6.207,0,7.954,4.566,8.061,8.416H4287.3c-.161-1.554-.66-5.9-5.333-5.9-3.6,0-5.118,2.515-5.118,5.4,0,3.567,1.6,5.261,5.992,7.366,5.921,2.854,7.9,5.742,7.9,10.612,0,5.421-2.942,9.185-8.9,9.185-6.491,0-8.686-4.28-8.97-9.2h2.871Z" transform="translate(-4272.873 -1.208)"/>
        <path id="Path_305" data-name="Path 305" class="cls-1" d="M5005.252,16.164h8.293c5.261,0,8.792,3.37,8.792,9.292,0,5.886-3.157,9.809-9.363,9.809h-4.816V50.37h-2.889V16.164Zm2.89,16.568h4.532c4.352,0,6.688-2.354,6.688-7.294,0-3.906-2.051-6.723-6.225-6.723h-5.011V32.732Z" transform="translate(-4984.24 -15.7)"/>
        <path id="Path_306" data-name="Path 306" class="cls-1" d="M5688.566,17.264c0,11.361-2.55,17.906-9.776,17.906-6.937,0-9.594-6.28-9.594-17.8,0-11.415,3.141-17.371,9.74-17.371C5685.874,0,5688.566,5.778,5688.566,17.264Zm-16.39.018c0,10.362,2.247,15.3,6.723,15.3,4.6,0,6.688-4.887,6.688-15.23,0-10.7-2.266-14.785-6.723-14.785-4.369.017-6.688,4.779-6.688,14.712Z" transform="translate(-5629.14 0)"/>
        <path id="Path_307" data-name="Path 307" class="cls-1" d="M6337.2,18.785h-7.74V16.164h18.37v2.621h-7.741v31.6H6337.2Z" transform="translate(-6270.459 -15.7)"/>
      </g>
    </g>
  </g>
</svg>
